<?xml version="1.0" encoding="utf-8"?>
<!-- Generator: Adobe Illustrator 27.5.0, SVG Export Plug-In . SVG Version: 6.00 Build 0)  -->
<svg version="1.1" xmlns="http://www.w3.org/2000/svg" xmlns:xlink="http://www.w3.org/1999/xlink" x="0px" y="0px"
	 viewBox="0 0 500 500" style="enable-background:new 0 0 500 500;" xml:space="preserve">
<g id="BACKGROUND">
	<path style="fill:#EBF5FF;" d="M337.75,107.999c16.984,14.975,33.26,32.997,63.43,41.461c19.921,5.589,25.757,1.36,34.478,6.879
		c37.858,23.957,22.158,163.31-40.67,188.219c-33.266,13.189-49.911-17.534-115.07-13.104
		c-53.413,3.632-61.664,25.597-102.732,22.712c-43.365-3.047-84.557-31.08-106.943-64.545
		c-46.696-69.807-19.332-174.856,49.124-219.887c4.999-3.288,52.169-33.368,107.52-23.273
		C278.667,55.906,327.075,98.587,337.75,107.999z"/>
</g>
<g id="OBJECTS">
	<g>
		<ellipse style="fill:#E6E6E6;" cx="269.705" cy="361.5" rx="137.901" ry="7.998"/>
		<g>
			<g>
				<rect x="149.667" y="89.396" style="fill:#FFFFFF;" width="233.131" height="277.977"/>
				<path style="fill:#97C8F0;" d="M366.798,105.396v245.976H165.667V105.396H366.798 M382.798,89.396H149.667v277.976h233.131
					V89.396L382.798,89.396z"/>
			</g>
		</g>
		<g>
			<path style="fill:#B5B5B5;" d="M288.539,79.676c0.003-0.138,0.021-0.273,0.021-0.412c0-9.556-7.746-17.302-17.302-17.302
				c-9.556,0-17.302,7.746-17.302,17.302c0,0.139,0.018,0.274,0.021,0.412h-28.6v28.781h91.762V79.676H288.539z M271.258,86.733
				c-3.898,0-7.057-3.16-7.057-7.057c0-3.898,3.16-7.057,7.057-7.057c3.898,0,7.057,3.16,7.057,7.057
				C278.315,83.574,275.156,86.733,271.258,86.733z"/>
		</g>
		<g>
			<g>
				<rect x="198.311" y="149.245" style="fill:#E6E6E6;" width="41.581" height="41.581"/>
			</g>
			<g>
				
					<line style="fill:none;stroke:#E6E6E6;stroke-width:3;stroke-linecap:round;stroke-miterlimit:10;" x1="260.034" y1="154.373" x2="335.445" y2="154.373"/>
				
					<line style="fill:none;stroke:#E6E6E6;stroke-width:3;stroke-linecap:round;stroke-miterlimit:10;" x1="260.034" y1="164.813" x2="335.445" y2="164.813"/>
				
					<line style="fill:none;stroke:#E6E6E6;stroke-width:3;stroke-linecap:round;stroke-miterlimit:10;" x1="260.034" y1="175.253" x2="335.445" y2="175.253"/>
				
					<line style="fill:none;stroke:#E6E6E6;stroke-width:3;stroke-linecap:round;stroke-miterlimit:10;" x1="260.034" y1="185.693" x2="335.445" y2="185.693"/>
			</g>
		</g>
		<g>
			<g>
				<rect x="198.311" y="214.958" style="fill:#E6E6E6;" width="41.581" height="41.581"/>
			</g>
			<g>
				
					<line style="fill:none;stroke:#E6E6E6;stroke-width:3;stroke-linecap:round;stroke-miterlimit:10;" x1="260.034" y1="220.086" x2="335.445" y2="220.086"/>
				
					<line style="fill:none;stroke:#E6E6E6;stroke-width:3;stroke-linecap:round;stroke-miterlimit:10;" x1="260.034" y1="230.526" x2="335.445" y2="230.526"/>
				
					<line style="fill:none;stroke:#E6E6E6;stroke-width:3;stroke-linecap:round;stroke-miterlimit:10;" x1="260.034" y1="240.966" x2="335.445" y2="240.966"/>
				
					<line style="fill:none;stroke:#E6E6E6;stroke-width:3;stroke-linecap:round;stroke-miterlimit:10;" x1="260.034" y1="251.406" x2="335.445" y2="251.406"/>
			</g>
		</g>
		<g>
			<g>
				<rect x="198.311" y="280.671" style="fill:#E6E6E6;" width="41.581" height="41.581"/>
			</g>
			<g>
				
					<line style="fill:none;stroke:#E6E6E6;stroke-width:3;stroke-linecap:round;stroke-miterlimit:10;" x1="260.034" y1="285.799" x2="335.445" y2="285.799"/>
				
					<line style="fill:none;stroke:#E6E6E6;stroke-width:3;stroke-linecap:round;stroke-miterlimit:10;" x1="260.034" y1="296.239" x2="335.445" y2="296.239"/>
				
					<line style="fill:none;stroke:#E6E6E6;stroke-width:3;stroke-linecap:round;stroke-miterlimit:10;" x1="260.034" y1="306.679" x2="335.445" y2="306.679"/>
				
					<line style="fill:none;stroke:#E6E6E6;stroke-width:3;stroke-linecap:round;stroke-miterlimit:10;" x1="260.034" y1="317.119" x2="335.445" y2="317.119"/>
			</g>
		</g>
	</g>
	<ellipse style="fill:#E6E6E6;" cx="310.48" cy="401.814" rx="52.302" ry="7.998"/>
	<g>
		<g>
			<polygon style="fill:#E6E6E6;" points="195.309,367.361 212.64,367.361 224.565,175.851 207.233,175.851 			"/>
			<path style="fill:#F0AC97;" d="M159.369,377.985l34.676,5.107l-0.606,4.112c-1.023,6.945-7.482,11.746-14.426,10.723
				l-9.527-1.403c-6.945-1.023-11.745-7.482-10.723-14.427L159.369,377.985z"/>
			<g>
				
					<rect x="174.092" y="359.985" transform="matrix(0.1457 -0.9893 0.9893 0.1457 -222.1388 497.7713)" style="fill:#E6E6E6;" width="6.122" height="35.05"/>
			</g>
			<polygon style="fill:#FFC5A3;" points="189.895,170.7 224.571,175.807 212.744,135.834 			"/>
			<path style="fill:#4D4D4D;" d="M206.4,145.515c2.533,0.878,5.73,1.522,9.65,1.491l-3.306-11.172L206.4,145.515z"/>
			
				<rect x="79.158" y="266.324" transform="matrix(0.1457 -0.9893 0.9893 0.1457 -114.7537 411.4402)" style="fill:#C4BA5C;" width="203.398" height="11.683"/>
			
				<rect x="90.717" y="268.026" transform="matrix(0.1457 -0.9893 0.9893 0.1457 -106.5634 424.3293)" style="fill:#DED268;" width="203.398" height="11.683"/>
			
				<rect x="102.276" y="269.728" transform="matrix(0.1457 -0.9893 0.9893 0.1457 -98.3726 437.2192)" style="fill:#FFF38A;" width="203.398" height="11.683"/>
			<path style="fill:#FFC5A3;" d="M201.447,172.402l-11.559-1.702l2.788,5.353c0.894,1.717,3.206,2.058,4.557,0.671L201.447,172.402
				z"/>
			<path style="fill:#FFC5A3;" d="M213.006,174.105l-11.559-1.702l2.788,5.353c0.894,1.717,3.206,2.057,4.557,0.671L213.006,174.105
				z"/>
			<path style="fill:#FFC5A3;" d="M224.565,175.807l-11.559-1.702l2.788,5.353c0.894,1.717,3.206,2.057,4.557,0.671L224.565,175.807
				z"/>
			<path style="fill:#D4917B;" d="M190.75,393.322c-7.472,0.629-19.219,2.147-22.905-3.72c-2.02-3.216-0.12-6.26-1.07-10.527
				l-7.407-1.091l-0.606,4.112c-1.023,6.945,3.778,13.404,10.723,14.427l9.527,1.403
				C183.627,398.606,188.017,396.705,190.75,393.322z"/>
			<g>
				<polygon style="fill:#CCCCCC;" points="194.937,377.035 160.261,371.928 159.885,374.482 194.937,377.035 				"/>
			</g>
		</g>
		<g>
			<ellipse style="fill:#E6E6E6;" cx="91.23" cy="390.32" rx="52.302" ry="7.998"/>
			<path style="fill:#7DAD8D;" d="M29.043,333.895c0,0-5.104-1.276-3.835,5.279c1.654,8.544,4.787,20.938,8.207,21.045
				C37.792,360.356,32.777,344.943,29.043,333.895z"/>
			<path style="fill:#95CFA8;" d="M31.11,334.562c0,0-6.544-3.686-4.807,4.698c1.766,8.522,4.574,19.896,7.932,20.555
				C36.543,360.268,34.844,345.61,31.11,334.562z"/>
			<path style="fill:#FFC5A3;" d="M34.183,346.454c-0.813-4.069-1.134-5.57-1.508-7.083c-0.048-0.195,0.047-0.397,0.228-0.483
				l5.785-2.756c0.21-0.1,0.3-0.352,0.2-0.563l-1.653-3.468c-0.1-0.21-0.352-0.3-0.563-0.2l-5.878,2.801
				c-0.138,0.066-0.23,0.198-0.24,0.35c-0.055,0.889,0.29,4.177,2.115,12.115C33.403,350.364,34.525,348.168,34.183,346.454z"/>
			<path style="fill:#FFFFFF;" d="M34.236,359.815c0.967,0.19,1.228-2.28,0.933-6.02c-1.669-1.127-3.578-0.536-4.953,0.215
				C31.425,357.222,32.778,359.529,34.236,359.815z"/>
			<path style="fill:#7DAD8D;" d="M126.33,385.695c0,0-3.69,3.75,2.602,5.984c8.201,2.912,20.469,6.505,22.298,3.612
				C153.57,391.59,137.745,388.087,126.33,385.695z"/>
			<path style="fill:#45596B;" d="M120.21,192.934c-9.227,3.803-12.098,14.555-12.24,15.12c-2.578,10.26,4.011,14.722,0.36,21.96
				c-2.863,5.675-7.684,4.458-10.44,10.08c-3.236,6.6-0.307,15.854,4.32,21.24c7.983,9.293,25.046,11.883,33.84,5.04
				c27.56-21.447,9.796-70.219-6.12-74.52C127.131,191.097,123.216,191.695,120.21,192.934z"/>
			<path style="fill:#293540;" d="M127.942,213.889c0,0-4.237,7.286-2.624,13.946c1.612,6.66,18.304,1.62,18.304,1.62l-6.464-18.45
				L127.942,213.889z"/>
			<path style="fill:#95CFA8;" d="M127.954,384.252c0,0-6.497,3.767,1.608,6.527c8.239,2.805,19.464,6.159,21.736,3.6
				C152.86,392.621,139.369,386.644,127.954,384.252z"/>
			<path style="fill:#FFC5A3;" d="M139.76,387.642c-3.918-1.366-5.375-1.851-6.868-2.296c-0.192-0.057-0.318-0.242-0.301-0.442
				l0.562-6.383c0.021-0.232-0.151-0.437-0.384-0.458l-3.827-0.337c-0.232-0.021-0.437,0.151-0.458,0.384l-0.571,6.486
				c-0.013,0.152,0.053,0.299,0.18,0.384c0.738,0.499,3.746,1.871,11.511,4.328C142.734,390.299,141.41,388.217,139.76,387.642z"/>
			<g>
				<path style="fill:#FFC5A3;" d="M136.379,223.563c0,0,24.096-7.113,30.649-6.971l21.577-28.185c0,0-12.809,35.463-16.8,37.072
					c-3.991,1.609-22.224,5.921-33.244,8.508C127.541,236.574,124.738,227.046,136.379,223.563z"/>
				<g>
					<path style="fill:#F0A389;" d="M171.805,225.479c0.9-0.363,2.249-2.45,3.798-5.461c-0.672,0.712-1.536,1.536-2.698,2.407
						c-0.708,0.531-1.646,1.169-3.511,2.161c-3.741,1.991-7.432,3.398-10.261,4.451C165,227.563,169.947,226.228,171.805,225.479z"
						/>
				</g>
				<path style="fill:#FFC5A3;" d="M180.501,209.165c0,0,10.122-19.751,10.984-21.913c0.861-2.162-3.445-4.409-2.595-6.221
					c0.85-1.812,1.936-8.084-0.144-6.138c-2.081,1.945-5.514,4.561-1.421,14.68L180.501,209.165z"/>
			</g>
			<path style="fill:#95CFA8;" d="M153.949,216.43c-2.738,0.322-5.876,0.814-8.713,1.936c-2.426,0.959-1.289,4.693,0.1,8.31
				c2.777,7.234,14.615,4.669,14.615,4.669l-1.526-15.296L153.949,216.43z"/>
			<path style="fill:#95CFA8;" d="M133.76,219.945c0,0-17.33-4.285-12.956,40.149c0,0-3.39,5.071-8.872,18.384l24.544,7.842
				c0,0,5.409-16.092,10.412-23.128c4.906-6.899,6.962-13.652,7.462-33.682C154.581,220.324,142.37,214.35,133.76,219.945z"/>
			<path style="fill:none;" d="M145.236,218.367c0.104,0.219,0.212,0.437,0.322,0.653
				C145.391,218.614,145.237,218.369,145.236,218.367z"/>
			<path style="fill:#FFC5A3;" d="M144.085,228.373c1.567-3.659,1.975-8.133,1.473-9.353c-0.111-0.216-0.218-0.434-0.322-0.653
				l0-0.001h0c-2.223-4.686-2.94-10.031-2.94-10.031l-8.115,2.189c0.075,0.188,1.209,6.079-0.421,9.421
				C133.76,219.945,143.622,229.455,144.085,228.373z"/>
			<path style="fill:#F0A389;" d="M134.584,216.439c2.749,0.111,5.795-0.499,9.038-2.307c-0.972-3.177-1.326-5.796-1.326-5.796
				l-8.115,2.189C134.233,210.655,134.798,213.559,134.584,216.439z"/>
			<g>
				<path style="fill:#FFC5A3;" d="M121.293,204.402c2.939,5.134,9.423,13.79,23.616,8.62c1.589-0.579,2.6-2.148,2.487-3.835
					c-0.406-6.064-2.373-20.122-11.887-22.076c-8.658-1.778-15.235,2.854-15.961,9.507
					C119.254,199.324,119.941,202.039,121.293,204.402z"/>
				<path style="fill:#212121;" d="M143.604,199.778c0.204,0.62,0.057,1.224-0.328,1.351c-0.385,0.127-0.862-0.273-1.065-0.893
					c-0.204-0.62-0.057-1.224,0.328-1.351C142.924,198.758,143.401,199.158,143.604,199.778z"/>
				<path style="fill:#212121;" d="M136.486,202.117c0.204,0.62,0.057,1.225-0.328,1.351c-0.385,0.126-0.862-0.273-1.066-0.893
					c-0.204-0.62-0.057-1.225,0.328-1.351C135.805,201.097,136.282,201.497,136.486,202.117z"/>
				<path style="fill:#DB886B;" d="M139.996,205.52l3.779-1.278C143.775,204.242,143.198,206.687,139.996,205.52z"/>
				<path style="fill:#212121;" d="M137.158,208.908c0.961,0.109,1.883,0.165,2.794,0.069c0.457-0.032,0.9-0.136,1.343-0.253
					c0.45-0.111,0.861-0.322,1.311-0.514c-0.637,0.739-1.622,1.173-2.604,1.265C139.017,209.56,138.006,209.391,137.158,208.908z"/>
				<path style="fill:#45596B;" d="M126.777,198.859c0.399-1.118,1.503-1.839,2.687-1.752c3.356,0.248,10.529,0.166,14.744-4.374
					c1.253-1.35,2.817-4.538,0.273-6.742c-3.857-3.342-12.532-8.755-20.629-0.267c0,0-5.567-2.206-10.284,4.438
					c-4.717,6.645-1.496,25.845,18.022,23.547C131.591,213.711,123.526,207.973,126.777,198.859z"/>
				<path style="fill:#293540;" d="M126.78,207.319l-1.462-0.16c0,0,3.078,2.801,2.624,6.73c1.148,0.026,3.462,0.384,4.75,0.232
					C132.692,214.121,129.645,213.614,126.78,207.319z"/>
				<path style="fill:#66839E;" d="M129.884,194.07c0.604,1.325,6.458,1.693,10.856-1.368c0.195-0.135,3.611-2.554,3.028-4.154
					c-0.287-0.789-1.516-1.29-2.526-1.126c-1.776,0.289-3.67,4.148-6.4,4.805c-2.498,0.601-4.073-0.657-4.864,0.564
					C129.817,193.041,129.588,193.42,129.884,194.07z"/>
				<path style="fill:#FFC5A3;" d="M128.242,206.226c0,0-3.625-1.62-4.118,0.057c-0.493,1.676,1.921,3.965,4.959,3.303
					C132.121,208.924,128.242,206.226,128.242,206.226z"/>
				<path style="fill:#45596B;" d="M144.085,196.942c-0.576,0.285-1.024,0.382-1.513,0.433c-0.242,0.015-0.486,0.024-0.743-0.006
					c-0.258-0.027-0.524-0.072-0.833-0.202c0.392-0.526,0.94-0.723,1.49-0.787c0.278-0.012,0.561-0.001,0.836,0.088
					C143.595,196.55,143.87,196.683,144.085,196.942z"/>
				<path style="fill:#45596B;" d="M135.243,198.726c-0.434,0.475-0.817,0.726-1.254,0.951c-0.22,0.102-0.444,0.198-0.695,0.263
					c-0.25,0.068-0.515,0.123-0.849,0.113c0.175-0.632,0.615-1.014,1.105-1.273c0.255-0.112,0.522-0.204,0.811-0.221
					C134.645,198.538,134.95,198.563,135.243,198.726z"/>
			</g>
			<path style="fill:#7DAD8D;" d="M128.894,244.23c0,0,2.542,11.008,15.787,4.501l-3.417-5.372L128.894,244.23z"/>
			<path style="fill:#7DAD8D;" d="M118.67,280.631c5.228-5.26,6.959-15.12,7.067-21.074c0.162-9.018-3.37-10.309-3.403-19.826
				c-0.024-6.938,1.832-12.61,3.402-16.482c-3.826,4.428-7.137,14.443-4.932,36.844c0,0-3.39,5.071-8.872,18.384L118.67,280.631z"/>
			<path style="fill:#BA6C79;" d="M141.05,274.624c0,0,5.566,55.607,4.968,60.927c-0.598,5.32-12.412,46.005-12.412,46.005
				l-5.867-1.875c0,0,1.499-14.035,3.356-20.422c1.857-6.388,5.465-18.83,5.21-21.483c-0.255-2.653-11.457-22.216-14.059-39.949
				C119.645,280.094,141.05,274.624,141.05,274.624z"/>
			<path style="fill:#BA6C79;" d="M117.028,266.949c0,0,10.261,10.237,24.021,7.675l0.913,9.321l-25.594,3.32L117.028,266.949z"/>
			<path style="fill:#995A6B;" d="M116.369,287.264l10.38,1.127l6.662,42.417C133.411,330.808,118.752,296.737,116.369,287.264z"/>
			<path style="fill:#BA6C79;" d="M117.053,266.949c0,0-15.876,4.204-20.987,13.398l-21.483,29.352c0,0-13.853,6.107-21.07,10.672
				c-10.13,6.407-19.105,12.269-19.105,12.269l3.017,4.407c0,0,36.393-14.513,45.334-18.789c8.94-4.276,27.079-13.592,42.038-30.862
				L117.053,266.949z"/>
			<g>
				<path style="fill:#FFC5A3;" d="M139.573,234.248c0,0,25.095-1.2,31.428,0.491l27.642-22.269c0,0-20.849,31.418-25.107,32.035
					c-4.258,0.617-22.994,0.485-34.313,0.387C127.904,244.794,127.438,234.873,139.573,234.248z"/>
				<g>
					<path style="fill:#F0A389;" d="M173.536,244.505c0.96-0.139,2.766-1.847,4.984-4.405c-0.822,0.532-1.856,1.128-3.191,1.699
						c-0.813,0.348-1.876,0.745-3.923,1.268c-4.106,1.048-8.025,1.54-11.024,1.892C166.431,244.917,171.553,244.792,173.536,244.505
						z"/>
				</g>
				<path style="fill:#FFC5A3;" d="M185.85,230.717c0,0,14.514-16.79,15.863-18.686c1.349-1.896-2.301-5.1-1.047-6.659
					c1.255-1.559,3.797-7.395,1.315-5.998c-2.482,1.397-6.438,3.124-4.86,13.925L185.85,230.717z"/>
			</g>
			<path style="fill:#95CFA8;" d="M139.188,231.885c-2.952-0.004-5.835,0.935-8.017,2.802c-2.234,1.912-4.053,4.84-2.392,8.907
				c3.323,8.134,17.007,5.434,17.007,5.434l-1.987-17.136L139.188,231.885z"/>
			<path style="fill:#7DAD8D;" d="M128.994,223.572l-1.841,4.801l8.636-1.438l-1.608,2.97l10.66,0.812l-0.755-2.344l-10.325-8.428
				c0,0-0.422-0.082-1.293,0.208C130.853,220.691,129.603,221.984,128.994,223.572z"/>
			<path style="fill:#7DAD8D;" d="M145.236,218.367l5.275,0.653l-4.26,6.865h2.58l-3.99,4.832l-0.755-2.344
				C144.085,228.373,146.595,222.637,145.236,218.367z"/>
			
				<rect x="144.019" y="231.845" transform="matrix(0.9993 -0.0363 0.0363 0.9993 -8.6258 5.4405)" style="fill:#7DAD8D;" width="3.32" height="17.372"/>
			
				<rect x="159.182" y="215.76" transform="matrix(0.9951 -0.0984 0.0984 0.9951 -21.2209 16.9058)" style="fill:#7DAD8D;" width="3.09" height="15.525"/>
			<path style="fill:#FFFFFF;" d="M151.298,394.379c0.655-0.737-1.34-2.215-4.713-3.86c-1.818,0.866-2.278,2.811-2.33,4.377
				C147.638,395.485,150.312,395.49,151.298,394.379z"/>
			<path style="fill:#995A6B;" d="M129.395,273.983l-3.653,10.228c0,0,3.052,2.267,5.812-9.692L129.395,273.983z"/>
		</g>
	</g>
	<g>
		<g>
			<path style="fill:#7DAD8D;" d="M365.155,398.5c0,0-0.343-5.437,6.094-2.917c8.392,3.285,20.427,8.795,19.895,12.299
				C390.465,412.365,375.708,404.371,365.155,398.5z"/>
			<path style="fill:#95CFA8;" d="M365.447,400.73c0,0-2.528-7.354,5.685-4.016c8.348,3.394,19.406,8.383,19.448,11.927
				C390.609,411.076,376,406.601,365.447,400.73z"/>
			<path style="fill:#FFC5A3;" d="M376.983,406.085c-3.992-1.589-5.46-2.198-6.931-2.862c-0.19-0.086-5.954,0.993-6.076,1.162
				l-4.05,0.515c-0.142,0.196-0.415,0.239-0.611,0.098l-3.222-2.332c-0.196-0.142-0.239-0.415-0.098-0.611l5.735-0.964
				c0.093-0.128,4.164-0.856,4.321-0.837c0.916,0.11,4.2,1.077,11.941,4.422C381.111,406.024,378.664,406.755,376.983,406.085z"/>
			<path style="fill:#FFFFFF;" d="M390.58,408.641c0.012,1.021-2.552,0.824-6.305-0.177c-0.835-1.911,0.124-3.745,1.146-5.004
				C388.466,405.293,390.561,407.103,390.58,408.641z"/>
		</g>
		<g>
			<path style="fill:#7DAD8D;" d="M277.519,396.871c0,0,0.296-5.44-6.12-2.864c-8.363,3.357-20.349,8.973-19.788,12.472
				C252.33,410.956,267.017,402.834,277.519,396.871z"/>
			<path style="fill:#95CFA8;" d="M277.246,399.104c0,0,2.464-7.376-5.719-3.966c-8.318,3.466-19.332,8.552-19.343,12.096
				C252.175,409.668,266.745,405.066,277.246,399.104z"/>
			<path style="fill:#FFC5A3;" d="M265.757,404.559c3.978-1.624,5.441-2.245,6.906-2.922c0.189-0.087,5.963,0.942,6.086,1.109
				l4.054,0.48c0.143,0.194,0.417,0.236,0.611,0.092l3.202-2.36c0.194-0.143,0.236-0.417,0.093-0.611l-5.743-0.914
				c-0.094-0.127-4.171-0.82-4.328-0.8c-0.915,0.118-4.19,1.114-11.902,4.526C261.628,404.534,264.082,405.243,265.757,404.559z"/>
			<path style="fill:#FFFFFF;" d="M252.183,407.233c-0.003,1.021,2.559,0.802,6.303-0.232c0.818-1.918-0.157-3.743-1.189-4.994
				C254.268,403.867,252.188,405.695,252.183,407.233z"/>
		</g>
		<path style="fill:#BA6C79;" d="M365.122,399.16c0,0-76.991-31.7-90.921-23.333c-13.929,8.366,33.113,26.268,90.648,29.921
			L365.122,399.16z"/>
		<path style="fill:#995A6B;" d="M337.526,388.678l-25.122,9.444c6.253,1.616,12.823,2.737,20.051,4.022
			c5.603-4.171,8.015-8.039,10.261-11.599C341.039,389.934,339.306,389.31,337.526,388.678z"/>
		<path style="fill:#BA6C79;" d="M277.103,398.058c0,0,77.59-30.204,91.355-21.569s-34.12,24.736-91.715,27.274L277.103,398.058z"/>
		<g>
			<path style="fill:#735A4F;" d="M336.513,283.641c0,0,5.047,15.952,5.767,24.414c0,0-24.214,9.308-39.478,5.725l0.824-26.727
				L336.513,283.641z"/>
			<g>
				<g>
					<path style="fill:#FFB58A;" d="M304.48,324.922c0,0-5.699,25.785-5.072,32.646l-27.979,24.683c0,0,36.251-16.02,37.646-20.322
						c1.396-4.302,4.76-23.709,6.494-35.479C316.482,320.247,305.655,319.35,304.48,324.922z"/>
					<g>
						<path style="fill:#F0987A;" d="M309.076,361.928c-0.315,0.97-2.405,2.537-5.449,4.381c0.697-0.757,1.499-1.723,2.327-3.005
							c0.505-0.781,1.105-1.811,2.01-3.839c1.815-4.068,3.02-8.04,3.918-11.084C310.764,354.641,309.725,359.925,309.076,361.928z"
							/>
					</g>
				</g>
				<path style="fill:#95CFA8;" d="M300.381,334.214c0.94-2.741,3.608-11.208,7.906-15.985c1.834-2.038,1.129,7.184,4.536,9.415
					c6.814,4.462,1.546,16.052,1.546,16.052l-15.374-4.969L300.381,334.214z"/>
				
					<rect x="298.434" y="339.354" transform="matrix(0.9696 0.2447 -0.2447 0.9696 92.6387 -64.5262)" style="fill:#7DAD8D;" width="15.216" height="2.52"/>
			</g>
			<path style="fill:#95CFA8;" d="M340.961,319.045c0,0,12.675,5.912-5.995,40.767c0,0,5.527,2.381,7.512,17.383l-15.466,3.329
				c-3.961,0.853-8.038,1.118-12.061,0.644c-6.987-0.824-7.897-3.11-10.397-6.74c0,0,3.143-9.934-0.046-18.43
				c-3.127-8.331-2.525-14.115,2.36-34.6C309.108,312.002,326.685,311.05,340.961,319.045z"/>
			<path style="fill:#7DAD8D;" d="M315.054,314.58c0,0-4.017,2.48-5.913,6.69l7.736,2.24l-4.07,1.52l8.358,3.21l-0.83-4.73
				L315.054,314.58z"/>
			<path style="fill:none;" d="M318.258,310.9c-0.165,0.195-0.333,0.387-0.503,0.577C318.034,311.109,318.256,310.901,318.258,310.9
				z"/>
			<path style="fill:#FFC5A3;" d="M320.335,323.51c0,0-4.533-3.43-4.693-4.807c-0.008-0.255-2.487-10.927-2.487-10.927l8.575-2.124
				c0.026,0.211,1.986,6.204,5.189,8.446C326.92,314.098,320.335,323.51,320.335,323.51z"/>
			<path style="fill:#F0A389;" d="M324.375,311.294c-2.47,1.503-5.93,2.495-9.833,2.485c-0.725-3.416-1.386-6.004-1.386-6.004
				l8.575-2.124C321.749,305.798,322.71,308.756,324.375,311.294z"/>
			<g>
				<path style="fill:#FFC5A3;" d="M330.458,293.455c-0.085,6.217-1.633,17.479-17.316,19.96c-1.756,0.278-3.485-0.649-4.241-2.258
					c-2.718-5.781-8.074-19.707-0.324-26.352c7.052-6.047,15.46-5.141,19.518,0.604
					C329.744,287.748,330.496,290.594,330.458,293.455z"/>
				<path style="fill:#212121;" d="M307.591,300.576c0.129,0.673,0.572,1.155,0.99,1.075c0.418-0.08,0.653-0.691,0.525-1.364
					c-0.129-0.673-0.572-1.155-0.99-1.074C307.697,299.292,307.462,299.902,307.591,300.576z"/>
				<path style="fill:#212121;" d="M315.327,299.097c0.129,0.673,0.572,1.155,0.99,1.075c0.418-0.08,0.653-0.691,0.524-1.364
					c-0.129-0.673-0.572-1.154-0.99-1.075C315.433,297.813,315.198,298.424,315.327,299.097z"/>
				<path style="fill:#DB8A5E;" d="M313.835,304.015l-4.125,0.752C309.709,304.767,311.486,306.72,313.835,304.015z"/>
				<path style="fill:#212121;" d="M318.17,305.683c-0.516,0.893-1.36,1.573-2.313,1.998c-0.954,0.418-2.092,0.516-3.051,0.137
					c0.513-0.066,0.997-0.087,1.464-0.219c0.464-0.124,0.921-0.254,1.355-0.457C316.507,306.769,317.325,306.256,318.17,305.683z"/>
				<path style="fill:#735A4F;" d="M322.592,291.155c-0.936-0.824-2.319-0.924-3.362-0.241c-2.959,1.939-9.594,5.519-15.783,3.494
					c-1.84-0.602-4.902-2.736-3.687-6.058c1.842-5.038,7.057-14.435,18.827-10.759c0,0,3.993-4.865,11.716-1.162
					c7.723,3.704,14.548,22.996-4.566,30.832C325.736,307.261,330.225,297.875,322.592,291.155z"/>
				<path style="fill:#5C483F;" d="M326.9,298.933l1.263-0.893c0,0,0.375,1.507,1.028,3.451c1.002,2.977-0.947,5.966-4.016,6.635
					c-0.092,0.02-0.173,0.044-0.243,0.073C324.932,308.2,327.475,306.18,326.9,298.933z"/>
				<path style="fill:#755C51;" d="M317.295,288.336c0.12,1.526-5.074,4.847-10.676,4.276c-0.248-0.025-4.621-0.507-4.901-2.275
					c-0.138-0.872,0.736-1.958,1.748-2.322c1.78-0.639,5.488,1.942,8.332,1.155c2.603-0.721,3.41-2.68,4.759-1.961
					C316.832,287.356,317.236,287.587,317.295,288.336z"/>
				<path style="fill:#FFC5A3;" d="M324.999,298.674c0,0,2.507-3.337,3.815-2.047c1.307,1.29,0.255,4.624-2.875,5.564
					C322.809,303.13,324.999,298.674,324.999,298.674z"/>
				<path style="fill:#735A4F;" d="M305.704,298.213c0.049-0.367,0.229-0.643,0.435-0.866c0.205-0.231,0.46-0.389,0.723-0.522
					c0.543-0.222,1.156-0.311,1.797,0.02c-0.211,0.302-0.428,0.492-0.647,0.656c-0.217,0.168-0.442,0.285-0.67,0.395
					C306.867,298.095,306.409,298.22,305.704,298.213z"/>
				<path style="fill:#735A4F;" d="M314.741,295.348c0.178-0.324,0.446-0.516,0.719-0.65c0.275-0.142,0.569-0.197,0.863-0.225
					c0.586-0.01,1.191,0.129,1.667,0.669c-0.306,0.205-0.577,0.304-0.841,0.377c-0.263,0.078-0.515,0.106-0.768,0.126
					C315.868,295.658,315.396,295.609,314.741,295.348z"/>
			</g>
			<path style="fill:#7DAD8D;" d="M334.262,378.779c-3.895-6.753-3.508-14.114-2.014-20.192c2.263-9.206,2.158-10.193,4.754-19.853
				c1.893-7.043,6.186-11.381,5.633-15.738c2.695,5.529,3.513,16.151-4.76,38.318c0,0,5.757,9.977,4.603,15.882L334.262,378.779z"/>
			<g>
				<g>
					<path style="fill:#FFC5A3;" d="M333.582,330.068c0,0-10.302,24.316-10.935,31.176l-32.008,19.172
						c0,0,38.563-9.147,40.719-13.123c2.156-3.976,8.834-22.503,12.849-33.702C348.224,322.391,338.608,318.327,333.582,330.068z"/>
					<g>
						<path style="fill:#F0A389;" d="M331.358,367.293c-0.486,0.897-2.827,2.056-6.156,3.315c0.823-0.617,1.787-1.421,2.835-2.53
							c0.638-0.676,1.417-1.58,2.676-3.409c2.525-3.669,4.435-7.356,5.872-10.185C334.347,360.435,332.362,365.442,331.358,367.293z
							"/>
					</g>
				</g>
				<g>
					<path style="fill:#FFC5A3;" d="M334.861,328.635c0,0-10.302,24.316-10.935,31.176l-32.008,19.172
						c0,0,38.563-9.147,40.719-13.123c2.156-3.976,8.834-22.503,12.849-33.702C349.502,320.958,339.887,316.894,334.861,328.635z"/>
					<g>
						<path style="fill:#F0A389;" d="M332.637,365.859c-0.486,0.897-2.827,2.056-6.156,3.315c0.824-0.617,1.787-1.421,2.835-2.53
							c0.638-0.676,1.417-1.58,2.676-3.409c2.525-3.669,4.435-7.356,5.872-10.185C335.625,359.002,333.641,364.008,332.637,365.859z
							"/>
					</g>
					<path style="fill:#FFB58A;" d="M314.563,372.995c0,0-21.834,8.215-24.194,8.857c-2.36,0.642-4.194-4.123-6.187-3.452
						c-1.993,0.671-8.673,1.058-6.393-0.883c2.28-1.941,5.421-5.215,15.5,0.267L314.563,372.995z"/>
				</g>
				<path style="fill:#95CFA8;" d="M330.182,328.833c1.11-2.912,2.575-6.14,5.323-7.609c2.814-1.504,4.896-3.487,8.46-0.364
					c7.129,6.247,0.047,20.084,0.047,20.084l-15.564-7.564L330.182,328.833z"/>
			</g>
			<linearGradient id="SVGID_1_" gradientUnits="userSpaceOnUse" x1="324.5951" y1="266.1422" x2="280.709" y2="378.9404">
				<stop  offset="0.3577" style="stop-color:#FFFFFF;stop-opacity:0"/>
				<stop  offset="0.4549" style="stop-color:#FBFDFE;stop-opacity:0.1959"/>
				<stop  offset="0.5524" style="stop-color:#EFF7FD;stop-opacity:0.3923"/>
				<stop  offset="0.6501" style="stop-color:#DBECFA;stop-opacity:0.5892"/>
				<stop  offset="0.7479" style="stop-color:#BFDDF6;stop-opacity:0.7863"/>
				<stop  offset="0.845" style="stop-color:#9BCAF1;stop-opacity:0.982"/>
				<stop  offset="0.854" style="stop-color:#97C8F0"/>
			</linearGradient>
			<polygon style="fill:url(#SVGID_1_);" points="267.932,380.264 254.56,345.456 270.04,312.377 345.526,312.722 319.28,380.496 
							"/>
			<g>
				<polygon style="fill:#666666;" points="319.28,380.496 267.932,380.253 292.749,376.408 344.097,376.651 				"/>
				<polygon style="fill:#4D4D4D;" points="344.197,379.084 319.269,382.928 319.28,380.496 344.208,376.651 				"/>
				<path style="fill:#4D4D4D;" d="M319.192,380.569l-51.348-0.243l-13.939-35.751c-0.454-1.163,0.408-2.418,1.657-2.412
					l47.542,0.225c0.726,0.003,1.376,0.45,1.64,1.127L319.192,380.569z"/>
				
					<rect x="267.926" y="380.374" transform="matrix(1 0.0047 -0.0047 1 1.8084 -1.3846)" style="fill:#666666;" width="51.348" height="2.433"/>
				<path style="fill:#666666;" d="M285.674,361.752c0.72,3.174-0.696,5.737-3.162,5.725c-2.466-0.012-5.05-2.594-5.77-5.768
					c-0.72-3.174,0.696-5.737,3.162-5.725C282.371,355.996,284.954,358.578,285.674,361.752z"/>
			</g>
			<path style="fill:#7DAD8D;" d="M326.92,314.097c0,0,5.045,1.471,7.265,5.107l-9.253,2.358l5.172,1.433l-8.94,5.244l-0.83-4.73
				L326.92,314.097z"/>
			
				<rect x="330.459" y="335.903" transform="matrix(0.9223 0.3864 -0.3864 0.9223 156.5413 -104.4438)" style="fill:#7DAD8D;" width="15.216" height="2.52"/>
		</g>
		<path style="fill:#FFF38A;" d="M308.348,281.774c0,0,16.026-7.44,20.429,10.902C328.777,292.677,322.48,280.214,308.348,281.774z"
			/>
	</g>
	<g>
		<g>
			<g>
				<path style="fill:#FFC5A3;" d="M409.976,213.826c0,0-2.428,20.39-2.537,27.279l0.039,30.632c0,0,5.403-27.401,7.25-31.53
					c1.847-4.129,7.264-23.065,10.244-34.583C426.542,199.555,411.739,208.413,409.976,213.826z"/>
			</g>
			<path style="fill:#95CFA8;" d="M406.794,212.088c0.976-2.728,5.179-13.028,9.54-17.748c1.861-2.014-0.39,9.067,2.987,11.343
				c6.755,4.552,1.334,16.071,1.334,16.071l-15.307-5.172L406.794,212.088z"/>
			
				<rect x="404.762" y="217.302" transform="matrix(0.9663 0.2574 -0.2574 0.9663 70.1649 -98.7928)" style="fill:#7DAD8D;" width="15.216" height="2.52"/>
		</g>
		<path style="fill:#E6E6E6;" d="M385.059,374.272c0.128,2.869,17.741,4.413,39.34,3.448c21.599-0.964,39.004-4.072,38.876-6.94
			c-0.128-2.869-17.741-4.413-39.34-3.448C402.336,368.296,384.931,371.403,385.059,374.272z"/>
		<g>
			<path style="fill:#7DAD8D;" d="M412.162,372.447c0,0,2.903,4.388-3.7,5.375c-8.608,1.287-21.337,2.462-22.577-0.728
				C384.297,373.013,400.501,372.607,412.162,372.447z"/>
			<path style="fill:#95CFA8;" d="M410.845,370.72c0,0,5.655,4.943-2.829,6.098c-8.624,1.174-20.283,2.316-22.023-0.632
				C384.797,374.161,399.184,370.88,410.845,370.72z"/>
			<path style="fill:#FFC5A3;" d="M398.608,371.785c4.107-0.59,5.63-0.786,7.181-0.938c0.2-0.02,0.359-0.176,0.38-0.376l0.672-6.372
				c0.024-0.232,0.232-0.4,0.464-0.376l3.821,0.403c0.232,0.024,0.4,0.232,0.376,0.464l-0.683,6.476
				c-0.016,0.152-0.11,0.283-0.25,0.342c-0.82,0.348-4.035,1.118-12.127,2.042C395.181,373.822,396.879,372.033,398.608,371.785z"/>
			<path style="fill:#FFFFFF;" d="M385.993,376.186c-0.501-0.849,1.74-1.917,5.365-2.885c1.619,1.198,1.697,3.195,1.448,4.742
				C389.374,377.972,386.748,377.465,385.993,376.186z"/>
		</g>
		<path style="fill:#7DAD8D;" d="M454.577,370.916c0,0,3.508,3.921-2.883,5.854c-8.331,2.519-20.755,5.524-22.445,2.548
			C427.088,375.51,443.062,372.763,454.577,370.916z"/>
		<path style="fill:#95CFA8;" d="M453.024,369.398c0,0,6.311,4.072-1.916,6.443c-8.363,2.41-19.734,5.228-21.883,2.563
			C427.748,376.573,441.508,371.245,453.024,369.398z"/>
		<path style="fill:#FFC5A3;" d="M441.07,372.223c3.979-1.178,5.457-1.593,6.969-1.967c0.195-0.048,0.33-0.226,0.322-0.427
			l-0.258-6.403c-0.009-0.233,0.172-0.43,0.405-0.439l3.839-0.154c0.233-0.009,0.43,0.172,0.439,0.405l0.262,6.506
			c0.006,0.152-0.068,0.296-0.198,0.375c-0.761,0.463-3.831,1.691-11.704,3.776C437.974,374.735,439.395,372.719,441.07,372.223z"/>
		<path style="fill:#FFFFFF;" d="M429.225,378.404c-0.619-0.767,1.444-2.149,4.891-3.632c1.775,0.952,2.142,2.916,2.119,4.482
			C432.829,379.682,430.157,379.56,429.225,378.404z"/>
		<path style="fill:#BA6C79;" d="M432.252,246.675c0,0,4.124,17.486-1.388,27.194l-15.062,35.971c0,0,1.471,16.527,1.031,25.856
			c-0.618,13.094-5.363,33.02-5.363,33.02l-5.326-0.615c0,0-1.163-50.847-1.821-61.686c-0.658-10.84-1.433-33.166,6.292-56.565
			L432.252,246.675z"/>
		<path style="fill:#995A6B;" d="M426.336,284.596c0,0-0.936,2.323-4.998,12.025c-0.207,0.495,0.895-28.53,1.136-31.176l4.242,0.121
			L426.336,284.596z"/>
		<path style="fill:#BA6C79;" d="M444.262,243.463c0,0,8.379,15.631,5.575,26.679l-5.268,39.307c0,0,5.6,15.51,7.547,24.652
			c2.733,12.831,0.988,32.568,0.988,32.568l-5.247,1.024c0,0-11.75-47.798-15.13-58.065c-3.38-10.267-9.787-31.588-8.342-56.527
			L444.262,243.463z"/>
		<path style="fill:#DED054;" d="M424.029,175.702c0,0-4.099,2.341-6.138,6.483l7.655,2.503l-4.12,1.38l8.243,3.494l-0.668-4.756
			L424.029,175.702z"/>
		<path style="fill:#95CFA8;" d="M453.086,198.664c0,0,7.977,3.814-11.875,38.009c0,0,5.442,2.568,6.913,17.63l-15.571,2.798
			c-3.988,0.717-8.071,0.842-12.076,0.231c-6.954-1.062-7.785-3.378-10.16-7.092c0,0,1.55-9.398,0.584-18.421
			c-1.155-10.795-2.04-14.193,3.543-34.499C417.004,188.007,439.092,190.185,453.086,198.664z"/>
		<path style="fill:#7DAD8D;" d="M423.276,190.49c0,0-4.578,1.27-6.617,5.412l7.088,2.927l-3.492,2.325l7.056,4.137l0.43-5.817
			L423.276,190.49z"/>
		<path style="fill:#7DAD8D;" d="M439.858,255.605c-3.662-6.882-3.023-14.226-1.322-20.249c2.577-9.123,2.506-10.113,5.431-19.679
			c2.133-6.974,7.201-11.88,6.797-16.253c2.504,5.618,4.403,16.339-4.624,38.209c0,0,3.339,10.808,1.983,16.67L439.858,255.605z"/>
		<g>
			<g>
				<path style="fill:#FFC5A3;" d="M443.339,204.931c0,0-15.724,17.928-19.261,23.839l-37.151,3.444c0,0,38.726,8.43,42.389,5.778
					c3.664-2.652,15.08-9.776,23.606-20.161C460.471,208.635,452.948,196.518,443.339,204.931z"/>
				<g>
					<path style="fill:#F0A389;" d="M429.316,237.992c-0.826,0.598-3.438,0.631-6.984,0.326c1.009-0.2,2.226-0.508,3.651-1.055
						c0.868-0.333,1.961-0.812,3.887-1.916c3.864-2.216,8.498-3.87,11.018-5.799C436.295,233.946,431.022,236.757,429.316,237.992z"
						/>
				</g>
				<path style="fill:#FFC5A3;" d="M415.782,229.777c0,0-26.408,4.812-28.814,4.37c-2.405-0.442-3.67-10.095,0.431-6.23
					L415.782,229.777z"/>
			</g>
			<path style="fill:#95CFA8;" d="M439.514,206.084c2.172-2.738,5.016-6.644,8.452-7.286c3.518-0.657,6.23-1.125,8.986,3.421
				c5.511,9.091-6.743,21.494-6.743,21.494l-14.086-13.353L439.514,206.084z"/>
			
				<rect x="433.336" y="215.75" transform="matrix(0.7629 0.6465 -0.6465 0.7629 245.547 -235.1827)" style="fill:#7DAD8D;" width="20.124" height="2.826"/>
		</g>
		<path style="fill:#7DAD8D;" d="M435.384,190.899c0,0,4.341,1.455,6.435,5.164l-9.328,2.04l5.12,1.609l-10.301,5.578l0.43-5.817
			L435.384,190.899z"/>
		<g>
			<path style="fill:#FFC5A3;" d="M427.741,199.473c0,0-4.099-3.938-4.096-5.325c0.022-0.254-1.187-11.144-1.187-11.144l8.765-1.102
				c0.001,0.213,1.244,6.395,4.162,8.997C435.384,190.899,427.741,199.473,427.741,199.473z"/>
			<path style="fill:#F0A389;" d="M433.186,187.816c-2.63,1.203-6.182,1.782-10.057,1.314c-0.319-3.478-0.672-6.126-0.672-6.126
				l8.765-1.102C431.224,182.05,431.831,185.1,433.186,187.816z"/>
			<g>
				<path style="fill:#FFC5A3;" d="M441.321,170.815c-0.814,6.164-3.674,17.167-19.54,17.79c-1.776,0.07-3.385-1.054-3.947-2.74
					c-2.021-6.061-5.705-20.518,2.771-26.207c7.713-5.177,15.956-3.291,19.312,2.891
					C441.282,165.063,441.695,167.977,441.321,170.815z"/>
				<path style="fill:#212121;" d="M417.777,175.202c0.049,0.684,0.433,1.214,0.857,1.183c0.425-0.03,0.73-0.609,0.681-1.293
					c-0.049-0.684-0.433-1.214-0.857-1.183C418.033,173.939,417.728,174.518,417.777,175.202z"/>
				<path style="fill:#212121;" d="M425.633,174.642c0.049,0.684,0.432,1.214,0.857,1.183s0.73-0.609,0.681-1.293
					c-0.049-0.684-0.433-1.214-0.857-1.183C425.889,173.379,425.584,173.958,425.633,174.642z"/>
				<path style="fill:#DB8A5E;" d="M423.573,179.35l-4.185,0.263C419.388,179.612,420.923,181.761,423.573,179.35z"/>
				<path style="fill:#212121;" d="M427.683,181.516c-0.617,0.826-1.535,1.402-2.531,1.713c-0.996,0.303-2.138,0.266-3.046-0.223
					c0.518-0.005,1,0.03,1.479-0.045c0.475-0.069,0.944-0.144,1.399-0.294C425.904,182.399,426.777,181.985,427.683,181.516z"/>
				<path style="fill:#B0965F;" d="M433.779,167.607c-0.833-0.928-2.195-1.19-3.311-0.634c-3.166,1.578-10.176,4.354-16.084,1.618
					c-1.757-0.814-4.547-3.293-2.951-6.449c2.421-4.787,8.703-13.507,19.96-8.475c0,0,14.699,1.243,12.786,14.909
					c-1.187,8.482-2.342,15.061-8.513,15.904C435.667,184.48,440.571,175.177,433.779,167.607z"/>
				<path style="fill:#877349;" d="M437.145,175.837l1.359-0.738c0,0,0.195,1.541,0.616,3.548c0.645,3.074-1.64,5.814-4.767,6.118
					c-0.094,0.009-0.177,0.023-0.25,0.044C434.103,184.808,436.866,183.101,437.145,175.837z"/>
				<path style="fill:#D1B271;" d="M428.85,164.185c-0.06,1.529-5.608,4.218-11.104,2.993c-0.243-0.054-4.53-1.046-4.6-2.835
					c-0.035-0.882,0.961-1.859,2.009-2.101c1.842-0.426,5.222,2.573,8.139,2.125c2.67-0.41,3.701-2.261,4.956-1.389
					C428.505,163.158,428.879,163.435,428.85,164.185z"/>
				<path style="fill:#FFC5A3;" d="M435.288,175.356c0,0,2.881-3.019,4.028-1.585s-0.29,4.622-3.508,5.188
					C432.59,179.525,435.288,175.356,435.288,175.356z"/>
				<path style="fill:#4A3A33;" d="M416.18,172.634c0.092-0.359,0.303-0.611,0.533-0.809c0.231-0.206,0.502-0.333,0.78-0.433
					c0.565-0.156,1.185-0.173,1.782,0.231c-0.245,0.276-0.483,0.438-0.72,0.575c-0.235,0.141-0.473,0.231-0.712,0.313
					C417.348,172.654,416.879,172.724,416.18,172.634z"/>
				<path style="fill:#4A3A33;" d="M425.491,170.849c0.215-0.301,0.504-0.46,0.79-0.561c0.29-0.108,0.589-0.128,0.884-0.122
					c0.583,0.058,1.167,0.267,1.577,0.86c-0.328,0.168-0.609,0.234-0.879,0.276c-0.27,0.046-0.524,0.045-0.777,0.035
					C426.574,171.29,426.111,171.186,425.491,170.849z"/>
			</g>
		</g>
		<g>
			<path style="fill:#FFF38A;" d="M396.882,249.084l-0.065,0.044c-1.602,1.077-3.774,0.65-4.85-0.952l-18.664-27.538
				c-1.077-1.602-0.65-3.774,0.952-4.85l0.065-0.044c1.602-1.077,3.774-0.65,4.85,0.952l18.664,27.538
				C398.91,245.836,398.484,248.007,396.882,249.084z"/>
			<path style="fill:#E8DA5F;" d="M376.649,219.456c-0.871-1.297-2.457-1.806-3.881-1.389c-0.156,0.863,0.006,1.785,0.534,2.571
				l18.664,27.538c0.871,1.297,2.457,1.806,3.881,1.389c0.156-0.863-0.006-1.785-0.534-2.571L376.649,219.456z"/>
			<path style="fill:#FFF38A;" d="M349.101,169.023c6.354,0,16.748,8.176,22.462,21.384c3.654,8.448,4.43,17.055,1.978,21.929
				c-0.864,1.717-2.035,2.728-3.581,3.09c-0.454,0.106-0.945,0.16-1.46,0.16c-6.354,0-16.749-8.176-22.462-21.384
				c-3.654-8.447-4.43-17.055-1.978-21.929c0.864-1.717,2.035-2.728,3.581-3.09C348.095,169.076,348.586,169.023,349.101,169.023
				L349.101,169.023 M349.101,163.023c-0.968,0-1.914,0.104-2.829,0.318c-10.09,2.363-12.661,17.247-5.742,33.243
				c6.292,14.545,18.263,25.002,27.969,25.002c0.968,0,1.914-0.104,2.829-0.318c10.09-2.363,12.66-17.247,5.741-33.242
				C370.778,173.479,358.807,163.022,349.101,163.023L349.101,163.023z"/>
		</g>
		<path style="fill:#FFC5A3;" d="M387.535,226.677c0,0-0.485-4.216-6.89-2.801c-6.404,1.415-2.566,9.725-0.568,10.271
			c1.999,0.547,7.924-2.533,10.405-1.758C393.124,233.215,387.535,226.677,387.535,226.677z"/>
		<path style="fill:#E8DA5F;" d="M375.912,218.936c-0.654,0.493-3.394,2.299-8.587,0.604c-26.19-8.55-30.586-42.256-30.594-42.298
			c-0.428,5.606,0.784,12.367,3.801,19.341c6.919,15.996,20.708,27.047,30.798,24.684
			C373.091,220.854,374.619,220.052,375.912,218.936z"/>
		<path style="fill:#FFF8B8;" d="M348.1,169.035l0.038,0.063c0.31-0.045,0.629-0.076,0.964-0.076h0
			c6.354,0,16.749,8.176,22.462,21.384c2.727,6.303,3.849,12.695,3.225,17.558c1.008-5.076,1.476-14.527-4.908-25.333
			C360.34,166.485,348.1,169.035,348.1,169.035z"/>
	</g>
	<g>
		<g>
			<path style="fill:#BA6C79;" d="M217.462,378.269c0,0-6.756,4.981-5.669-2.514c1.087-7.495,14.062-16.47,21.291-16.926
				c0,0-3.111,18.058-7.654,23.823C221.481,387.664,217.652,388.989,217.462,378.269z"/>
			<path style="fill:#BA6C79;" d="M204.599,358.86c0,0-0.104,8.393-5.425,3.004c-5.321-5.389-4.65-21.151-0.652-27.191
				c0,0,12.523,13.376,14.38,20.477C214.516,361.323,213.262,365.176,204.599,358.86z"/>
			<path style="fill:none;stroke:#995A6B;stroke-miterlimit:10;" d="M206.512,412.247c0,0,0.996-23.228,17.232-42.981"/>
			<path style="fill:#BA6C79;" d="M198.925,383.85c0,0,4.691,3.509,3.969-1.727c-0.722-5.236-9.733-11.563-14.776-11.917
				c0,0,2.083,12.618,5.225,16.664C196.074,390.388,198.74,391.331,198.925,383.85z"/>
			<path style="fill:none;stroke:#995A6B;stroke-miterlimit:10;" d="M206.4,407.618c0,0-0.581-16.216-11.815-30.082"/>
			<path style="fill:none;stroke:#995A6B;stroke-miterlimit:10;" d="M206.526,405.543c0,0,5.644-32-5.448-55.039"/>
		</g>
		<ellipse style="fill:#E6E6E6;" cx="207.168" cy="424.113" rx="13.477" ry="2.573"/>
		<path style="fill:#97C8F0;" d="M190.474,397.867c0,0-0.693,13.373,7.11,27.138c0,0,8.874,4.29,18.667,0
			c0,0,6.188-10.833,6.919-27.146L190.474,397.867z"/>
		<path style="fill:#86B6E0;" d="M218.297,420.592c-5.26,0.755-13.277,3.717-17.128-0.288c-2.857-2.971-0.18-6.408-2.779-14.59
			c-0.858-2.701-2.162-5.513-3.619-7.847l-4.296,0.001c0,0-0.693,13.373,7.11,27.138c0,0,8.874,4.29,18.667,0
			C216.251,425.004,217.147,423.433,218.297,420.592z"/>
	</g>
</g>

</svg>
